<?xml version="1.0" standalone="no"?>
<!DOCTYPE svg PUBLIC "-//W3C//DTD SVG 20010904//EN"
 "http://www.w3.org/TR/2001/REC-SVG-20010904/DTD/svg10.dtd">
<svg version="1.0" xmlns="http://www.w3.org/2000/svg"
 width="1024.000000pt" height="1024.000000pt" viewBox="0 0 1024.000000 1024.000000"
 preserveAspectRatio="xMidYMid meet">
<metadata>
Created by potrace 1.14, written by Peter Selinger 2001-2017
</metadata>
<g transform="translate(0.000000,1024.000000) scale(0.100000,-0.100000)"
fill="#000000" stroke="none">
<path d="M2515 9813 c-194 -23 -340 -157 -375 -343 -5 -29 -10 -155 -10 -280
l0 -227 -81 -6 c-190 -15 -376 -103 -520 -246 -102 -103 -170 -215 -220 -366
l-23 -70 -3 -937 -4 -938 3841 0 3841 0 -4 938 -3 937 -23 70 c-50 151 -134
288 -232 380 -141 133 -328 218 -508 232 l-81 6 0 227 c0 125 -5 251 -10 280
-30 157 -142 282 -293 327 -67 20 -187 20 -254 0 -151 -45 -263 -170 -293
-327 -5 -29 -10 -156 -10 -281 l0 -229 -2130 0 -2130 0 0 229 c0 125 -5 252
-10 281 -29 155 -144 284 -288 325 -55 15 -134 24 -177 18z"/>
<path d="M2130 5120 l0 -430 430 0 430 0 0 430 0 430 -430 0 -430 0 0 -430z"/>
<path d="M3410 5120 l0 -430 430 0 430 0 0 430 0 430 -430 0 -430 0 0 -430z"/>
<path d="M4690 5120 l0 -430 430 0 430 0 0 430 0 430 -430 0 -430 0 0 -430z"/>
<path d="M5970 5120 l0 -430 430 0 430 0 0 430 0 430 -430 0 -430 0 0 -430z"/>
<path d="M7250 5120 l0 -430 430 0 430 0 0 430 0 430 -430 0 -430 0 0 -430z"/>
<path d="M2130 3840 l0 -430 430 0 430 0 0 430 0 430 -430 0 -430 0 0 -430z"/>
<path d="M3410 3840 l0 -430 430 0 430 0 0 430 0 430 -430 0 -430 0 0 -430z"/>
<path d="M4690 3840 l0 -430 430 0 430 0 0 430 0 430 -430 0 -430 0 0 -430z"/>
<path d="M5970 3840 l0 -430 430 0 430 0 0 430 0 430 -430 0 -430 0 0 -430z"/>
<path d="M7250 3840 l0 -430 430 0 430 0 0 430 0 430 -430 0 -430 0 0 -430z"/>
<path d="M2130 2560 l0 -430 430 0 430 0 0 430 0 430 -430 0 -430 0 0 -430z"/>
<path d="M3410 2560 l0 -430 430 0 430 0 0 430 0 430 -430 0 -430 0 0 -430z"/>
<path d="M4690 2560 l0 -430 430 0 430 0 0 430 0 430 -430 0 -430 0 0 -430z"/>
<path d="M5970 2560 l0 -430 430 0 430 0 0 430 0 430 -430 0 -430 0 0 -430z"/>
<path d="M7250 2560 l0 -430 430 0 430 0 0 430 0 430 -430 0 -430 0 0 -430z"/>
<path d="M1281 1877 c-1 -200 3 -275 15 -334 66 -321 286 -558 611 -660 l88
-28 3115 0 c3011 0 3118 1 3190 19 274 68 509 273 604 527 48 129 56 197 55
476 -1 201 -4 239 -10 174 -33 -341 -269 -627 -602 -730 -38 -11 -116 -25
-175 -31 -147 -14 -5957 -14 -6104 0 -59 6 -137 20 -175 31 -331 102 -570 391
-602 730 -6 65 -9 27 -10 -174z"/>
</g>
</svg>
